<svg width="122" height="122" viewBox="0 0 122 122" fill="none" xmlns="http://www.w3.org/2000/svg">
<path d="M61.0001 0C77.1781 6.82571e-05 92.6934 6.42673 104.133 17.8662C115.573 29.3059 121.999 44.8219 121.999 61C121.999 73.0645 118.422 84.8584 111.719 94.8896C105.016 104.921 95.4898 112.74 84.3439 117.356C73.1977 121.973 60.9324 123.181 49.0997 120.827C37.267 118.473 26.3973 112.664 17.8663 104.133C9.33553 95.6019 3.52569 84.733 1.172 72.9004C-1.18168 61.0676 0.0267807 48.8025 4.64368 37.6562C9.2606 26.51 17.0791 16.983 27.1105 10.2803C37.1418 3.57761 48.9356 0 61.0001 0ZM81.0089 12.6943C71.4551 8.73703 60.9422 7.70143 50.7999 9.71875C40.6575 11.7362 31.3407 16.7161 24.0284 24.0283C16.7163 31.3405 11.7364 40.6566 9.71887 50.7988C7.70143 60.9412 8.7371 71.4549 12.6945 81.0088C16.6518 90.5625 23.3532 98.7285 31.9513 104.474C40.5496 110.219 50.659 113.285 61.0001 113.285C74.867 113.285 88.1655 107.776 97.9708 97.9707C107.776 88.1654 113.285 74.8668 113.285 61C113.285 50.6589 110.219 40.5495 104.474 31.9512C98.7286 23.353 90.5627 16.6517 81.0089 12.6943ZM91.5001 45.3789L52.2863 84.5889L30.5001 62.7988L36.6564 56.6426L52.2863 72.2676L85.3341 39.2139L91.5001 45.3789Z" fill="#26A980" style="fill:#26A980;fill:color(display-p3 0.1490 0.6627 0.5020);fill-opacity:1;"/>
</svg>