<svg xmlns="http://www.w3.org/2000/svg" width="159" height="121" fill="none" viewBox="0 0 159 121"><g clip-path="url(#clip0_1_21)"><path fill="#e00" d="M105.835 69.617c10.335 0 25.301-2.155 25.301-14.504a16.3 16.3 0 0 0-.248-2.818l-6.119-26.852c-1.406-5.884-2.646-8.619-12.981-13.757C103.767 7.542 86.321.829 81.112.829c-4.878 0-6.284 6.216-11.989 6.216-5.54 0-9.591-4.641-14.8-4.641-4.961 0-8.186 3.397-10.666 10.36 0 0-6.946 19.64-7.855 22.542a5.1 5.1 0 0 0-.166 1.574c-.082 7.625 29.932 32.654 70.199 32.737m26.872-9.448c1.405 6.796 1.405 7.541 1.405 8.37 0 11.603-12.981 18.067-30.096 18.067-38.696 0-72.514-22.708-72.514-37.709-.003-2.08.419-4.14 1.24-6.05C18.853 43.51.828 45.997.828 61.91c0 26.106 61.682 58.262 110.465 58.262 37.455 0 46.881-16.989 46.881-30.415 0-10.526-9.095-22.46-25.466-29.587" style="fill:#e00;fill:color(display-p3 .9333 0 0);fill-opacity:1"/><path fill="#000" d="M132.707 60.168c1.405 6.796 1.405 7.542 1.405 8.371 0 11.603-12.981 18.067-30.096 18.067-38.696 0-72.514-22.708-72.514-37.709-.003-2.08.419-4.14 1.24-6.05l3.06-7.542a5.1 5.1 0 0 0-.166 1.575c0 7.625 30.015 32.654 70.199 32.654 10.335 0 25.301-2.155 25.301-14.504a16.3 16.3 0 0 0-.248-2.818z" style="fill:#000;fill-opacity:1"/></g><defs><clipPath id="clip0_1_21"><path fill="#fff" d="M0 0h159v121H0z" style="fill:#fff;fill-opacity:1"/></clipPath></defs></svg>